<svg xmlns="http://www.w3.org/2000/svg" width="383.42" height="100.84" viewBox="0 0 101.45 26.69"><defs><filter id="a" color-interpolation-filters="sRGB"><feGaussianBlur result="blur" stdDeviation="1 1"/></filter></defs><path fill-opacity=".31" d="M35.07 17.1a7.26 7.26 0 007.35 7.34c2.17 0 4.14-.97 5.4-2.45 4.46 5.04 12.8 1.84 12.73-4.89V2.22h-3.62V17.1c0 2.07-1.6 3.95-3.66 3.95-1.9 0-3.6-1.88-3.6-3.95V2.22h-3.63V17.1c0 2.07-1.62 3.95-3.62 3.95-2.08 0-3.73-1.88-3.73-3.95V2.22h-3.62zm28.07-.42c0 4.1 3.3 7.47 7.45 7.47h6.97v-3.4h-5.44l5.76-5.72C76.02 6.2 63 7.65 63.14 16.68zm4.96 2.94a3.99 3.99 0 01-1.33-2.94c0-2.17 1.75-4.04 3.82-4.04 1.17 0 2.46.68 2.98 1.5zm15.84-2.68V12.9h3.72c2.3 0 3.92 1.87 3.92 4.04 0 2.13-1.62 4.1-3.92 4.1-2 0-3.72-1.97-3.72-4.1zm-3.63 0a7.4 7.4 0 007.35 7.5 7.49 7.49 0 100-14.97h-3.72V2.22h-3.63z" filter="url(#a)"/><path fill="#ff9400" d="M5.56 24.15h5.64l5.6-14.68h-3.98l-4.44 11.8-4.47-11.8H0zm12.05 0h3.63V21.7a3.77 3.77 0 013.66-3.79 3.8 3.8 0 013.78 3.8v2.44h3.63V21.7c0-2.14-1-4.1-2.46-5.54a7.41 7.41 0 002.46-5.46V9.47H28.7v1.23a3.82 3.82 0 01-3.78 3.81 3.8 3.8 0 01-3.66-3.8V9.46h-3.63v1.23c0 2.23 1 4.1 2.46 5.46a7.84 7.84 0 00-2.46 5.54z"/><path fill="#0089cc" d="M35.07 17.1a7.26 7.26 0 007.35 7.34c2.17 0 4.14-.97 5.4-2.45 4.46 5.04 12.8 1.84 12.73-4.89V2.22h-3.62V17.1c0 2.07-1.6 3.95-3.66 3.95-1.9 0-3.6-1.88-3.6-3.95V2.22h-3.63V17.1c0 2.07-1.62 3.95-3.62 3.95-2.08 0-3.73-1.88-3.73-3.95V2.22h-3.62zm28.07-.42c0 4.1 3.3 7.47 7.45 7.47h6.97v-3.4h-5.44l5.76-5.72C76.02 6.2 63 7.65 63.14 16.68zm4.96 2.94a3.99 3.99 0 01-1.33-2.94c0-2.17 1.75-4.04 3.82-4.04 1.17 0 2.46.68 2.98 1.5zm15.84-2.68V12.9h3.72c2.3 0 3.92 1.87 3.92 4.04 0 2.13-1.62 4.1-3.92 4.1-2 0-3.72-1.97-3.72-4.1zm-3.63 0a7.4 7.4 0 007.35 7.5 7.49 7.49 0 100-14.97h-3.72V2.22h-3.63z"/></svg>